<?xml version="1.0" standalone="no"?>
<!DOCTYPE svg PUBLIC "-//W3C//DTD SVG 1.1//EN" "http://www.w3.org/Graphics/SVG/1.1/DTD/svg11.dtd" >
<svg xmlns="http://www.w3.org/2000/svg">
<metadata>Generated by IcoMoon</metadata>
<defs>
<font id="sheatufim" horiz-adv-x="1024">
<font-face units-per-em="1024" ascent="960" descent="-64" />
<missing-glyph horiz-adv-x="1024" />
<glyph unicode="&#x20;" horiz-adv-x="512" d="" />
<glyph unicode="&#xe900;" glyph-name="svg_icons_arrow" d="M557.242 329.15l-143.263 122.823c-3.995 3.425-6.3 8.424-6.307 13.684s2.276 10.267 6.257 13.698l144.209 124.449 23.611-27.346-128.314-110.729 127.317-109.154-23.51-27.426z" />
<glyph unicode="&#xe901;" glyph-name="svg_icons_Business-Sector_black" d="M705.201 506.37h104.19v-437.475h-104.19v437.475zM541.564 340.501h104.176v-271.606h-104.176v271.606zM214.218 300.453h104.183v-231.558h-104.183v231.558zM377.877 243.275h104.19v-174.38h-104.19v174.38zM732.649 778.771l-7.182-82.429c-0.744-8.446 5.52-15.895 13.966-16.632 0.448-0.043 0.903-0.058 1.351-0.058 7.882 0 14.587 6.026 15.281 14.024l10.657 122.231c0.802 2.37 1.019 4.877 0.636 7.326l0.173 2.009c0.419 4.732-1.38 9.385-4.877 12.607-3.475 3.222-8.258 4.66-12.947 3.873l-137.237-22.91c-8.366-1.394-14.016-9.313-12.622-17.672s9.335-14.031 17.672-12.615l97.637 16.299-180.362-185.16-112.759 60.299c-5.332 2.861-11.863 2.312-16.639-1.394l-177.249-137.215c-6.712-5.195-7.94-14.84-2.745-21.545 3.027-3.909 7.564-5.953 12.16-5.953 3.28 0 6.589 1.048 9.385 3.215l169.381 131.125 114.175-61.058c6.033-3.237 13.467-2.066 18.236 2.825l183.91 188.808z" />
<glyph unicode="&#xe902;" d="M705.208 506.37h104.183v-437.475h-104.183v437.475z" />
<glyph unicode="&#xe903;" d="M824.752 53.535h-134.903v468.188h134.896v-468.188zM720.561 84.248h73.47v406.762h-73.47v-406.762z" />
<glyph unicode="&#xe904;" d="M541.564 340.501h104.176v-271.606h-104.176v271.606z" />
<glyph unicode="&#xe905;" d="M661.093 53.535h-134.889v302.319h134.889v-302.319zM556.917 84.248h73.463v240.893h-73.463v-240.893z" />
<glyph unicode="&#xe906;" d="M214.218 300.453h104.183v-231.558h-104.183v231.558z" />
<glyph unicode="&#xe907;" d="M333.762 53.535h-134.896v262.271h134.896v-262.271zM229.579 84.248h73.47v200.845h-73.47v-200.845z" />
<glyph unicode="&#xe908;" d="M377.877 243.275h104.183v-174.38h-104.183v174.38z" />
<glyph unicode="&#xe909;" d="M497.42 53.535h-134.903v205.093h134.896v-205.093zM393.23 84.248h73.47v143.667h-73.47v-143.667z" />
<glyph unicode="&#xe90a;" glyph-name="svg_icons_Stock" d="M767.35 823.218l0.173 2.023c0.412 4.732-1.387 9.385-4.87 12.607s-8.258 4.646-12.954 3.873l-137.244-22.91c-8.366-1.394-14.009-9.313-12.615-17.672s9.291-14.031 17.672-12.615l97.63 16.299-180.348-185.16-112.752 60.299c-5.346 2.861-11.863 2.312-16.646-1.394l-177.249-137.215c-6.705-5.195-7.933-14.84-2.738-21.545 3.027-3.909 7.564-5.953 12.152-5.953 3.287 0 6.596 1.048 9.392 3.215l169.381 131.125 114.168-61.058c6.026-3.222 13.46-2.074 18.243 2.825l183.91 188.808-7.189-82.429c-0.737-8.446 5.513-15.895 13.966-16.632 0.455-0.043 0.903-0.058 1.351-0.058 7.875 0 14.587 6.026 15.281 14.024l10.657 122.245c0.795 2.363 1.004 4.855 0.629 7.297z" />
<glyph unicode="&#xe90b;" glyph-name="svg_icons_Contrast" d="M509.97 732.726c-1.149 0.087-2.305 0.144-3.468 0.144-144.773 0-262.56-117.78-262.56-262.56s117.788-262.56 262.56-262.56c1.163 0 2.319 0.058 3.027 0.144 143.111 1.647 259.533 119.363 259.533 262.416s-116.429 260.776-259.092 262.416zM509.211 262.241v416.154c113.344-1.474 205.512-94.74 205.512-208.077 0.007-113.265-92.045-206.488-205.512-208.077z" />
<glyph unicode="&#xe90c;" glyph-name="svg_icons_Ending-Date" d="M321.617 432.25h77.039v77.039h-77.039v-77.039zM340.524 490.381h39.224v-39.224h-39.224v39.224zM417.245 432.25h77.025v77.039h-77.025v-77.039zM436.153 490.381h39.21v-39.224h-39.21v39.224zM512.867 432.25h77.032v77.039h-77.032v-77.039zM531.782 490.381h39.217v-39.224h-39.217v39.224zM608.489 432.25h77.025v77.039h-77.025v-77.039zM627.396 490.381h39.21v-39.224h-39.21v39.224zM321.617 401.197h77.039v-77.032h-77.039v77.032zM417.245 324.165h77.025v77.032h-77.025v-77.032zM436.153 382.29h39.21v-39.217h-39.21v39.217zM512.867 324.165h77.032v77.032h-77.032v-77.032zM531.782 382.29h39.217v-39.217h-39.217v39.217zM608.489 324.165h77.025v77.032h-77.025v-77.032zM627.396 382.29h39.21v-39.217h-39.21v39.217zM683.534 677.203h-85.933v35.279h-18.908v-35.279h-164.439v35.279h-18.908v-35.279h-72.162c-30.85 0-55.95-25.099-55.95-55.942v-306.61c0-30.85 25.107-55.942 55.95-55.942h360.357c30.85 0 55.95 25.099 55.95 55.942v306.618c0 30.843-25.107 55.935-55.957 55.935zM323.177 658.295h72.162v-37.837h18.908v37.837h164.439v-37.837h18.908v37.837h85.94c20.425 0 37.042-16.61 37.042-37.028v-38.502h-434.441v38.502c0 20.418 16.617 37.028 37.042 37.028zM683.534 277.622h-360.357c-20.425 0-37.042 16.61-37.042 37.035v249.194h434.441v-249.194c0-20.418-16.61-37.035-37.042-37.035z" />
<glyph unicode="&#xe90d;" glyph-name="svg_icons_Files" d="M801.61 787.997h-195.621c-0.253 6.741 0.159 11.379 0.173 11.495l0.079 1.51c0 52.431-42.663 95.087-95.109 95.087-52.438 0-95.101-42.656-95.094-95.499 0.087-2.962-0.029-7.398-0.491-12.593h-187.457c-28.379 0-51.463-23.084-51.463-51.463v-664.893c0-28.365 23.084-51.441 51.463-51.441h573.52c28.372 0 51.449 23.076 51.449 51.441v664.893c0 28.379-23.076 51.463-51.449 51.463zM444.931 801.002c0 36.493 29.694 66.187 66.202 66.187 36.298 0 65.869-29.355 66.209-65.566-0.578-6.835-2.998-48.963 21.234-75.876 13.185-14.645 31.334-22.072 54.216-22.072 11.784 0 21.371-9.595 21.371-21.393v-12.427h-317.101v12.427c0 11.798 9.595 21.393 21.386 21.393 16.090 0 30.316 5.896 41.153 17.044 26.082 26.819 25.482 75.255 25.331 80.283zM703.070 640.955v34.882h47.077v-548.11h-470.609v548.11h48.624v-34.882h374.907zM824.159 71.64c0-12.427-10.115-22.542-22.549-22.542h-573.52c-12.441 0-22.563 10.115-22.563 22.542v664.893c0 12.441 10.122 22.563 22.563 22.563h181.425c-2.536-6.979-5.975-13.446-10.635-18.236-5.498-5.65-11.986-8.287-20.432-8.287-19.652 0-36.659-11.358-44.932-27.838h-68.434c-7.976 0-14.45-6.474-14.45-14.45v-577.010c0-7.976 6.474-14.45 14.45-14.45h499.501c7.976 0 14.45 6.474 14.45 14.45v577.010c0 7.976-6.474 14.45-14.45 14.45h-66.888c-8.28 16.473-25.345 27.838-45.192 27.838-14.226 0-24.818 4.068-32.382 12.434-3.728 4.118-6.459 8.995-8.511 14.089h189.993c12.434 0 22.549-10.122 22.549-22.563v-664.893zM511.133 765.527c19.558 0 35.467 15.916 35.467 35.474s-15.909 35.474-35.467 35.474c-19.572 0-35.496-15.916-35.496-35.474s15.924-35.474 35.496-35.474zM511.133 814.794c7.608 0 13.792-6.185 13.792-13.8s-6.185-13.8-13.792-13.8c-7.622 0-13.821 6.185-13.821 13.8s6.199 13.8 13.821 13.8zM380.174 516.933h268.268c7.976 0 14.45 6.474 14.45 14.45s-6.474 14.45-14.45 14.45h-268.268c-7.976 0-14.45-6.474-14.45-14.45s6.474-14.45 14.45-14.45zM380.174 451.085h268.268c7.976 0 14.45 6.474 14.45 14.45s-6.474 14.45-14.45 14.45h-268.268c-7.976 0-14.45-6.474-14.45-14.45s6.474-14.45 14.45-14.45zM380.174 385.244h268.268c7.976 0 14.45 6.474 14.45 14.45s-6.474 14.45-14.45 14.45h-268.268c-7.976 0-14.45-6.474-14.45-14.45s6.474-14.45 14.45-14.45zM380.174 319.397h268.268c7.976 0 14.45 6.474 14.45 14.45s-6.474 14.45-14.45 14.45h-268.268c-7.976 0-14.45-6.474-14.45-14.45s6.474-14.45 14.45-14.45zM648.442 284.696h-111.162c-7.976 0-14.45-6.474-14.45-14.45s6.474-14.45 14.45-14.45h111.162c7.976 0 14.45 6.474 14.45 14.45s-6.474 14.45-14.45 14.45z" />
<glyph unicode="&#xe90e;" glyph-name="svg_icons_Gallery" d="M715.677 663.41h-11.134v7.478c0 28.127-22.881 51.001-51.008 51.001s-51.008-22.881-51.008-51.001v-7.478h-270.623c-32.151 0-58.305-26.161-58.305-58.312v-299.703c0-32.151 26.154-58.305 58.305-58.305h383.765c32.151 0 58.305 26.154 58.305 58.305v299.703c0.007 32.151-26.147 58.312-58.298 58.312zM631.428 670.881c0 12.188 9.913 22.101 22.108 22.101s22.108-9.913 22.108-22.101v-7.478h-44.209v7.478zM331.905 634.511h383.765c16.213 0 29.405-13.193 29.405-29.413v-54.989h-116.921c-25.923 26.971-62.271 43.855-102.543 43.855s-76.613-16.885-102.529-43.855h-120.584v54.989c0 16.22 13.193 29.413 29.405 29.413zM525.612 565.065c62.568 0 113.474-50.907 113.474-113.474s-50.907-113.474-113.474-113.474c-62.56 0-113.453 50.899-113.453 113.474s50.892 113.474 113.453 113.474zM715.677 275.99h-383.772c-16.213 0-29.405 13.193-29.405 29.405v215.815h99.068c-11.603-20.605-18.308-44.325-18.308-69.619 0-78.506 63.861-142.374 142.352-142.374 78.506 0 142.374 63.868 142.374 142.374 0 25.287-6.697 49.014-18.308 69.619h95.405v-215.815c0-16.213-13.193-29.405-29.405-29.405zM525.612 360.391c50.3 0 91.214 40.915 91.214 91.2 0 50.293-40.915 91.207-91.214 91.207-50.278 0-91.186-40.915-91.186-91.207s40.907-91.2 91.186-91.2zM525.612 513.898c34.362 0 62.315-27.953 62.315-62.308s-27.953-62.3-62.315-62.3c-34.347 0-62.286 27.946-62.286 62.3s27.939 62.308 62.286 62.308z" />
<glyph unicode="&#xe90f;" glyph-name="svg_icons_Goal" d="M486.915 446.078c5.079 1.214 8.215 6.315 7.001 11.394-1.207 5.079-6.336 8.207-11.386 6.994-12.716-3.034-23.488-10.845-30.33-21.993-6.835-11.141-8.93-24.276-5.888-36.977 3.027-12.73 10.837-23.503 21.985-30.352 7.803-4.797 16.588-7.254 25.526-7.254 3.815 0 7.666 0.448 11.473 1.358 12.716 3.027 23.488 10.837 30.33 21.978s8.937 24.283 5.903 37.006c-1.214 5.079-6.3 8.2-11.386 7.001-5.079-1.207-8.215-6.315-7.001-11.386 1.864-7.81 0.578-15.88-3.627-22.722-4.198-6.842-10.808-11.625-18.611-13.489-7.832-1.864-15.88-0.578-22.722 3.612-6.835 4.205-11.625 10.816-13.489 18.633-1.871 7.796-0.578 15.851 3.62 22.693s10.801 11.639 18.604 13.503zM678.324 630.667c3.497 0.036 6.697 2.001 8.294 5.115l34.622 67.018c1.51 2.912 1.394 6.394-0.296 9.205-1.683 2.81-4.711 4.544-7.984 4.581l-49.917 0.592 2.529 4.79c2.435 4.617 0.672 10.332-3.952 12.774-4.602 2.428-10.339 0.665-12.774-3.952l-2.558-4.841-28.17 41.29c-1.871 2.724-4.862 4.255-8.323 4.111-3.295-0.181-6.264-2.074-7.825-4.985l-37.663-70.53c-1.698-3.186-1.438-7.059 0.679-9.985l34.759-48.132-15.974-30.287c-27.274 12.918-57.727 20.172-89.856 20.172-116.198 0-210.729-94.531-210.729-210.729s94.531-210.743 210.729-210.743c116.191 0 210.722 94.538 210.722 210.743 0 77.335-41.904 145.040-104.176 181.692l16.603 31.457 61.26 0.643zM685.723 416.861c0-105.78-86.041-191.836-191.814-191.836s-191.821 86.056-191.821 191.836c0 105.773 86.049 191.821 191.821 191.821 28.943 0 56.383-6.481 81.013-18.004l-30.576-57.965c-15.469 6.763-32.505 10.57-50.43 10.57-69.699 0-126.407-56.708-126.407-126.414 0-69.699 56.708-126.414 126.407-126.414 69.691 0 126.4 56.708 126.4 126.414 0 45.033-23.748 84.539-59.295 106.936l30.619 58.038c56.275-33.48 94.083-94.885 94.083-164.981zM489.502 408.501c1.402-0.744 2.912-1.091 4.4-1.091 3.396 0 6.676 1.835 8.366 5.043l49.917 94.617c29.572-19.175 49.216-52.409 49.216-90.203 0-59.28-48.219-107.499-107.492-107.499s-107.499 48.226-107.499 107.499c0 59.28 48.226 107.507 107.499 107.507 14.746 0 28.798-2.991 41.608-8.388l-49.967-94.704c-2.435-4.631-0.672-10.346 3.952-12.781zM672.436 649.503l-45.351-0.477 8.901 16.87 44.375-1.048-7.926-15.346zM697.413 697.859l-7.398-14.327-44.173 1.048 7.29 13.814 44.281-0.535zM611.292 743.686l25.020-36.666-8.366-15.851-25.786 35.402 9.132 17.116zM592.261 708.039l25.865-35.496-8.54-16.184-25.822 35.763 8.496 15.916z" />
<glyph unicode="&#xe910;" glyph-name="svg_icons_Government-offices_black" d="M368.419 225.95h263.463v-46.572h-263.463v46.572zM320.461 154.452h359.381v-76.367h-359.381v76.367zM767.827 790.786c-8.482 0-15.353-6.878-15.353-15.353v-113.294c0-118.59-96.481-215.064-215.078-215.064h-69.113c-118.597 0-215.093 96.481-215.093 215.064v113.294c0 8.482-6.871 15.353-15.353 15.353s-15.353-6.878-15.353-15.353v-113.294c0-135.525 110.266-245.777 245.798-245.777h14.168v-123.69c-19.197-6.849-33.292-24.435-34.947-45.524l105.296 0.029c-1.676 21.097-15.765 38.668-34.94 45.495v123.69h19.536c135.525 0 245.784 110.252 245.784 245.777v113.294c0 8.475-6.871 15.353-15.353 15.353zM482.898 483.366h39.889c108.634 0 197.016 88.382 197.016 197.030v95.036c0 8.482-6.871 15.353-15.353 15.353s-15.353-6.878-15.353-15.353v-95.036c0-91.706-74.604-166.317-166.31-166.317h-39.889c-91.698 0-166.317 74.612-166.317 166.317v95.036c0 8.482-6.871 15.353-15.353 15.353s-15.353-6.878-15.353-15.353v-95.036c0-108.641 88.382-197.030 197.023-197.030zM497.529 550.406h10.613c81.779 0 148.313 66.52 148.313 148.284v76.743c0 8.482-6.871 15.353-15.353 15.353s-15.353-6.878-15.353-15.353v-76.743c0-61.441-47.41-111.943-107.564-117.065v193.808c0 8.482-6.871 15.353-15.353 15.353s-15.353-6.878-15.353-15.353v-193.808c-60.155 5.122-107.564 55.625-107.564 117.065v76.743c0 8.482-6.871 15.353-15.353 15.353s-15.353-6.878-15.353-15.353v-76.743c0.007-81.764 66.541-148.284 148.32-148.284z" />
<glyph unicode="&#xe911;" d="M344.303 259.517h312.752v-90.066h-312.752v90.066z" />
<glyph unicode="&#xe912;" d="M641.694 244.157v-59.353h-282.039v59.353h282.039zM672.407 274.87h-343.465v-120.779h343.465v120.779z" />
<glyph unicode="&#xe913;" d="M292.963 173.497h415.432v-102.991h-415.432v102.991z" />
<glyph unicode="&#xe914;" d="M693.042 158.144v-72.278h-384.719v72.278h384.719zM723.755 188.857h-446.145v-133.704h446.145v133.704z" />
<glyph unicode="&#xe915;" d="M762.617 829.164c-8.482 0-15.353-6.878-15.353-15.353v-110.859c0-115.873-94.263-210.144-210.122-210.144h-67.632c-115.873 0-210.136 94.271-210.136 210.144v110.859c0 8.482-6.878 15.353-15.353 15.353s-15.353-6.878-15.353-15.353v-110.859c0-132.808 108.048-240.857 240.849-240.857h67.632c132.801 0 240.835 108.048 240.835 240.857v110.859c-0.014 8.475-6.885 15.353-15.367 15.353z" />
<glyph unicode="&#xe916;" d="M483.794 527.669h39.029c106.488 0 193.122 86.641 193.122 193.129v93.013c0 8.482-6.878 15.353-15.353 15.353s-15.353-6.878-15.353-15.353v-93.013c0-89.56-72.856-162.416-162.409-162.416h-39.029c-89.56 0-162.416 72.856-162.416 162.416v93.013c0 8.482-6.878 15.353-15.353 15.353s-15.353-6.878-15.353-15.353v-93.013c-0.014-106.495 86.627-193.129 193.114-193.129z" />
<glyph unicode="&#xe917;" d="M498.121 593.286h10.375c80.211 0 145.466 65.241 145.466 145.43v75.096c0 8.482-6.878 15.353-15.353 15.353s-15.353-6.878-15.353-15.353v-75.096c0-59.822-46.059-109.031-104.588-114.204v189.3c0 8.482-6.878 15.353-15.353 15.353s-15.353-6.878-15.353-15.353v-189.3c-58.522 5.173-104.588 54.382-104.588 114.204v75.096c0 8.482-6.878 15.353-15.353 15.353s-15.353-6.878-15.353-15.353v-75.096c-0.014-80.189 65.241-145.43 145.452-145.43z" />
<glyph unicode="&#xe918;" d="M481.72 475.563h37.924v-132.982h-37.924v132.982z" />
<glyph unicode="&#xe919;" d="M500.7 334.229c29.694 0 54.042-22.925 56.34-52.027l-112.716-0.036c2.276 29.095 26.645 52.063 56.376 52.063zM500.7 364.943c-45.25 0-83.462-35.308-86.995-80.377l-2.594-33.119 179.156 0.058-2.608 33.112c-3.562 45.040-41.753 80.326-86.959 80.326v0z" />
<glyph unicode="&#xe91a;" glyph-name="svg_icons_Heart-Hands" d="M862.292 678.554c-41.102 41.095-95.744 63.731-153.862 63.731-0.007 0-0.007 0-0.014 0-58.117 0-112.745-22.636-153.825-63.731l-45.134-45.148-43.523 43.516c-39.809 39.824-92.746 61.758-149.064 61.758s-109.262-21.935-149.064-61.751c-39.838-39.809-61.78-92.746-61.78-149.064 0-56.311 21.942-109.255 61.766-149.064l86.056-85.398 152.236-152.243c12.008-12.008 27.96-18.619 44.917-18.619 16.95 0 32.902 6.618 44.91 18.619 8.316 8.316 14.045 18.532 16.783 29.673l6.95-6.979c11.986-12.001 27.931-18.604 44.91-18.604 16.964 0 32.924 6.604 44.939 18.604 10.086 10.093 16.061 22.78 17.911 35.937 8.879-4.581 18.785-7.001 29.051-7.001 15.541 0 30.186 5.599 41.745 15.743 0.751 0.52 1.474 1.084 2.146 1.756l82.703 82.667 49.187 47.814 30.048 30.077c84.828 84.806 84.828 222.845 0.007 307.709zM633.234 233.146l-177.906 177.032c-5.982 5.961-15.671 5.961-21.653 0.007-5.989-5.953-6.054-15.635-0.13-21.66l134.795-137.201 19.413-19.384c12.774-12.788 12.774-33.596 0.014-46.369-6.199-6.199-14.45-9.616-23.221-9.616-8.764 0-17 3.41-23.163 9.58l-161.224 161.932c-5.982 6.011-15.7 6.040-21.711 0.051-6.011-5.982-6.040-15.692-0.065-21.711l115.808-116.516c6.199-6.192 9.616-14.428 9.616-23.192s-3.425-17.007-9.624-23.206c-6.206-6.206-14.443-9.624-23.192-9.624-8.757 0-16.993 3.417-23.199 9.624l-152.301 152.301-56.939 56.246-29.044 29.080c-34.037 34.015-52.778 79.243-52.778 127.346 0 48.111 18.741 93.331 52.778 127.346 34.008 34.015 79.243 52.756 127.353 52.756s93.339-18.734 127.346-52.756l48.71-48.703 36.392-39.101 183.924-184.524c6.199-6.199 9.624-14.443 9.624-23.192s-3.425-16.993-9.616-23.192c-6.199-6.192-14.435-9.602-23.192-9.602-8.764 0-17.007 3.41-23.228 9.616l-140.026 139.571c-5.968 5.961-15.649 5.975-21.66 0.022-5.989-5.953-6.054-15.635-0.13-21.66l129.008-131.248 45.618-43.682c12.795-12.795 12.795-33.61-0.007-46.406-6.185-6.192-14.414-9.609-23.177-9.609s-16.986 3.417-23.214 9.645zM840.567 392.556l-29.897-29.926-49.18-47.807-43.429-43.4c-2.319 9.479-6.835 18.554-13.576 26.4 11.444 2.644 21.949 8.439 30.467 16.957 12.001 12.008 18.611 27.953 18.611 44.91 0 16.964-6.611 32.909-18.597 44.896l-183.534 184.127-20.851 22.404 45.719 45.726c35.286 35.301 82.205 54.736 132.122 54.736 49.91 0 96.843-19.442 132.143-54.736 72.856-72.885 72.856-191.445 0-264.287z" />
<glyph unicode="&#xe91b;" glyph-name="svg_icons_Map" d="M678.968 532.271c0.137 3.006 0.21 7.167 0.21 9.754 0 84.12-66.866 147.547-155.53 147.547-87.183 0-152.337-66.093-155.4-157.358-0.946-7.247-11.032-109.992 145.618-246.311 2.724-2.37 6.105-3.547 9.479-3.547 3.533 0 7.073 1.293 9.833 3.865 5.961 5.542 145.994 136.84 145.994 243.501 0 0.6-0.036 1.207-0.116 1.806l-0.087 0.744zM650.133 529.93l0.137-1.091c-0.708-79.308-96.626-181.555-127.389-212.311-69.402 62.727-100.043 116.010-113.539 150.256-13.547 34.369-12.824 56.513-12.521 60.812 0.152 0.795 0.246 1.611 0.267 2.442 2.001 75.688 55.227 130.626 126.559 130.626 72.191 0 126.631-51.008 126.631-118.647 0-2.558-0.079-6.921-0.224-9.443-0.058-0.874-0.029-1.77 0.079-2.644zM523.647 607.063c-43.516 0-78.925-35.416-78.925-78.954s35.402-78.947 78.925-78.947c43.53 0 78.947 35.416 78.947 78.947s-35.416 78.954-78.947 78.954zM523.647 470.029c-32.021 0-58.067 26.053-58.067 58.088s26.046 58.088 58.067 58.088c32.035 0 58.088-26.053 58.088-58.088 0-32.028-26.060-58.088-58.088-58.088z" />
<glyph unicode="&#xe91c;" glyph-name="svg_icons_More" d="M441.362 641.779c-66.39 0-120.403-54.021-120.403-120.41 0-7.976 6.474-14.45 14.45-14.45s14.45 6.474 14.45 14.45c0 50.459 41.052 91.511 91.503 91.511 7.976 0 14.45 6.474 14.45 14.45s-6.474 14.45-14.45 14.45zM768.007 279.573l-83.462 83.491c-9.486 9.486-22.108 14.71-35.518 14.71-8.453 0-16.581-2.081-23.821-5.989l-34.694 34.694c24.565 31.826 39.238 71.664 39.238 114.883 0 103.872-84.51 188.382-188.389 188.382-103.865 0-188.368-84.51-188.368-188.382s84.502-188.382 188.368-188.382c50.264 0 95.954 19.825 129.774 52.019l33.668-33.682c-10.187-19.023-7.312-43.277 8.713-59.309l83.491-83.469c9.479-9.479 22.094-14.703 35.503-14.703s26.031 5.231 35.503 14.717c9.479 9.494 14.71 22.101 14.71 35.503 0.007 13.424-5.224 26.039-14.717 35.518zM441.362 361.886c-87.934 0-159.468 71.541-159.468 159.483s71.534 159.483 159.468 159.483c87.942 0 159.49-71.541 159.49-159.483s-71.548-159.483-159.49-159.483zM747.568 228.992c-8.041-8.056-22.072-8.049-30.128 0l-83.484 83.462c-8.309 8.316-8.316 21.863-0.022 30.178 4.031 4.031 9.392 6.25 15.093 6.25 5.693 0 11.054-2.218 15.086-6.25l83.469-83.498c4.031-4.024 6.242-9.371 6.242-15.057 0-5.693-2.225-11.047-6.257-15.086z" />
<glyph unicode="&#xe91d;" glyph-name="svg_icons_Participants" d="M829.831 656.287c0 0.022-0.007 0.043-0.007 0.072v3.721c0 1.806-0.643 3.403-1.524 4.833-3.634 10.794-13.72 18.647-25.721 18.647-13.785 0-25.107-10.332-26.898-23.64-0.123-0.6-0.361-1.149-0.361-1.785v-1.777c0-0.022-0.007-0.043-0.007-0.072s0.007-0.043 0.007-0.072v-49.072c0-42.136-31.623-76.952-72.372-82.154 4.805 9.876 7.579 20.909 7.579 32.606 0 41.283-33.581 74.872-74.864 74.872-41.29 0-74.879-33.589-74.879-74.872 0-14.782 4.364-28.531 11.784-40.156-8.879-6.083-16.747-13.503-23.308-22.022-11.993 8.164-26.465 12.954-42.027 12.954-12.716 0-24.687-3.208-35.178-8.822-5.867 6.871-12.557 12.896-19.999 17.976 7.391 11.603 11.733 25.323 11.733 40.062 0 41.283-33.581 74.872-74.864 74.872s-74.857-33.574-74.857-74.864c0-11.697 2.774-22.73 7.579-32.606-40.748 5.202-72.357 40.019-72.357 82.147v50.993c0 0.657-0.246 1.228-0.376 1.85-1.828 13.279-13.113 23.575-26.884 23.575-11.986 0-22.087-7.839-25.721-18.626-0.889-1.445-1.539-3.042-1.539-4.855v-77.921c0-25.215 12.196-42.887 27.614-65.255 19.16-27.773 43.003-62.336 57.243-129.6 0.946-4.451 4.87-7.499 9.241-7.499 0.65 0 1.308 0.065 1.965 0.21 5.101 1.077 8.366 6.098 7.29 11.206-15.028 70.963-41.117 108.8-60.176 136.421-14.089 20.432-24.268 35.193-24.268 54.519v48.32c2.644-0.86 5.419-1.445 8.345-1.445s5.7 0.585 8.345 1.445v-23.336c0-56.137 45.669-101.806 101.806-101.806h3.237c13.604-13.922 32.555-22.607 53.508-22.607 19.695 0 37.577 7.702 50.964 20.172 6.199-4.046 11.798-8.872 16.711-14.406-14.862-13.691-24.232-33.249-24.232-54.996 0-13.973 3.916-27.014 10.613-38.227-29.268-18.626-47.142-50.784-47.142-85.861v-46.182c0-5.224 4.234-9.457 9.457-9.457s9.457 4.234 9.457 9.457v46.182c0 29.181 15.288 55.747 40.033 70.753 13.525-13.301 32.042-21.537 52.46-21.537 19.457 0 37.158 7.528 50.488 19.738 23.019-15.295 37.223-41.167 37.223-68.962v-46.182c0-5.224 4.234-9.457 9.457-9.457s9.457 4.234 9.457 9.457v46.182c0 33.386-16.588 64.648-43.761 83.57 7.564 11.69 12.008 25.583 12.008 40.51 0 18.893-7.088 36.125-18.676 49.31 5.867 7.875 13.092 14.659 21.313 20.049 13.381-12.449 31.248-20.129 50.921-20.129 20.959 0 39.903 8.684 53.508 22.607h3.251c56.137 0 101.806 45.669 101.806 101.806v23.336c2.644-0.86 5.419-1.445 8.345-1.445 2.919 0 5.686 0.585 8.33 1.445v-48.32c0-19.327-10.18-34.087-24.268-54.519-19.059-27.628-45.156-65.458-60.176-136.421-1.077-5.108 2.189-10.122 7.297-11.206 0.657-0.144 1.315-0.21 1.958-0.21 4.371 0 8.294 3.049 9.241 7.499 14.24 67.264 38.082 101.828 57.243 129.6 15.425 22.368 27.614 40.040 27.614 65.255v74.055c0.007 0.051 0.014 0.065 0.014 0.094zM222.029 647.942c-4.602 0-8.345 3.742-8.345 8.345 0 4.609 3.75 8.359 8.345 8.359s8.345-3.75 8.345-8.359c0.007-4.602-3.742-8.345-8.345-8.345zM388.931 501.638c-30.858 0-55.957 25.099-55.957 55.957s25.107 55.964 55.957 55.964 55.957-25.107 55.957-55.964c0-30.858-25.099-55.957-55.957-55.957zM507.239 377.543c-30.858 0-55.957 25.099-55.957 55.957s25.107 55.964 55.957 55.964c30.858 0 55.964-25.107 55.964-55.964s-25.099-55.957-55.964-55.957zM635.669 501.638c-30.858 0-55.971 25.099-55.971 55.957s25.114 55.964 55.971 55.964c30.858 0 55.957-25.107 55.957-55.964 0.007-30.858-25.099-55.957-55.957-55.957zM802.586 647.942c-4.595 0-8.323 3.728-8.345 8.309v0.072c0.022 4.595 3.757 8.323 8.345 8.323s8.309-3.735 8.33-8.323v-0.072c-0.022-4.581-3.742-8.309-8.33-8.309z" />
<glyph unicode="&#xe91e;" glyph-name="svg_icons_Partners" d="M774.871 412.475c5.932 10.722 9.335 23.033 9.335 36.132 0 38.856-29.738 70.876-67.64 74.518-7.239 16.993-19.818 31.479-35.684 40.965 8.692 12.225 13.857 27.122 13.857 43.234 0 41.283-33.581 74.872-74.857 74.872-41.283 0-74.872-33.589-74.872-74.872 0-14.789 4.364-28.553 11.798-40.178-18.51-9.226-33.076-24.738-41.247-43.935-1.777 0.13-3.54 0.275-5.346 0.275-2.428 0-4.826-0.137-7.196-0.361-7.254 17.044-19.803 31.464-35.684 40.944 8.699 12.232 13.872 27.137 13.872 43.255 0 41.283-33.589 74.872-74.872 74.872s-74.872-33.589-74.872-74.872c0-14.797 4.371-28.567 11.813-40.192-18.698-9.335-33.473-25.085-41.601-44.599-35.901-5.498-63.514-36.507-63.514-73.932 0-12.008 2.904-23.322 7.962-33.394-0.282-0.116-0.571-0.101-0.838-0.238-33.95-17.585-55.047-52.251-55.047-90.463v-46.174c0-5.224 4.234-9.457 9.457-9.457s9.457 4.234 9.457 9.457v46.174c0 31.125 17.181 59.353 44.831 73.68 0.881 0.455 1.568 1.127 2.24 1.799 13.735-16.039 34.094-26.255 56.809-26.255 19.081 0 36.457 7.232 49.693 19.023 22.614-15.512 36.103-40.626 36.103-68.239v-46.174c0-5.224 4.234-9.457 9.457-9.457s9.457 4.234 9.457 9.457v46.174c0 28.943 15.31 55.82 39.975 70.811 13.532-13.337 32.071-21.595 52.525-21.595 19.471 0 37.172 7.536 50.502 19.76 22.997-15.295 37.208-41.247 37.208-68.983v-46.174c0-5.224 4.234-9.457 9.457-9.457s9.457 4.234 9.457 9.457v46.174c0 29.073 15.302 55.769 40.019 70.79 13.518-13.323 32.064-21.574 52.496-21.574 21.472 0 40.806 9.14 54.469 23.662 0.405-0.325 0.694-0.751 1.156-1.019 25.62-14.782 41.529-42.323 41.529-71.866v-46.174c0-5.224 4.234-9.457 9.457-9.457s9.457 4.234 9.457 9.457v46.174c-0.051 36.117-19.413 69.764-50.582 87.978zM619.875 663.295c30.858 0 55.95-25.107 55.95-55.964s-25.099-55.957-55.95-55.957c-30.858 0-55.964 25.099-55.964 55.957s25.099 55.964 55.964 55.964zM406.314 663.295c30.858 0 55.964-25.107 55.964-55.964s-25.107-55.957-55.964-55.957-55.964 25.099-55.964 55.957c0 30.858 25.107 55.964 55.964 55.964zM312.997 392.643c-30.858 0-55.95 25.107-55.95 55.964 0 30.865 25.099 55.979 55.95 55.979 30.858 0 55.964-25.114 55.964-55.979 0-30.858-25.099-55.964-55.964-55.964zM408.33 367.327c-7.254 15.7-18.51 29.434-33.018 39.845 7.926 11.878 12.564 26.118 12.564 41.435 0 37.967-28.423 69.352-65.089 74.171 7.478 13.164 19.081 23.474 33.133 29.348 13.323-12.174 30.98-19.666 50.401-19.666 18.156 0 34.81 6.502 47.786 17.289 13.12-6.806 23.784-17.715 30.2-30.973-28.531-10.57-48.963-37.996-48.963-70.168 0-13.98 3.916-27.028 10.621-38.234-16.603-10.584-29.543-25.634-37.635-43.046zM510.201 392.643c-30.858 0-55.957 25.107-55.957 55.964 0 30.865 25.107 55.979 55.957 55.979 30.858 0 55.964-25.114 55.964-55.979 0-30.858-25.099-55.964-55.964-55.964zM607.34 367.168c-7.528 16.263-19.269 30.504-34.246 40.951 7.55 11.69 11.986 25.569 11.986 40.488 0 32.794-21.22 60.66-50.61 70.775 7.319 14.797 19.717 26.356 35.019 32.743 13.315-12.167 30.973-19.659 50.394-19.659 18.156 0 34.81 6.502 47.786 17.296 11.921-6.199 21.819-15.859 28.343-27.527-34.94-6.322-61.542-36.898-61.542-73.629 0-13.959 3.909-26.985 10.584-38.184-16.69-10.635-29.637-25.75-37.714-43.255zM709.341 392.643c-30.858 0-55.964 25.107-55.964 55.964 0 30.865 25.107 55.979 55.964 55.979s55.957-25.114 55.957-55.979c0-30.858-25.107-55.964-55.957-55.964z" />
<glyph unicode="&#xe91f;" glyph-name="svg_icons_Path" d="M801.885 231.022c-24.557 103.569-133.148 142.88-220.41 174.467l-4.956 1.792c-25.020 9.067-49.426 20.194-58.486 40.069-9.876 21.689 2.594 38.798 17.044 58.594 5.094 6.979 10.361 14.19 14.616 21.747 15.526 27.527 18.048 53.305 7.478 76.627-13.518 29.817-48.111 52.922-95.304 63.969v100.412c4.205 1.207 12.629 3.237 22.014 3.237 10.946 0 19.688-2.724 26.002-8.092 14.811-12.6 32.62-15.245 44.946-15.245 10.086 0 17.217 1.712 17.99 1.907 4.212 1.055 7.16 4.833 7.16 9.168v72.343c0 2.897-1.351 5.635-3.627 7.427-2.283 1.792-5.267 2.435-8.092 1.748-0.058-0.014-5.65-1.351-13.446-1.351-9.154 0-22.253 1.864-32.678 10.729-9.826 8.359-22.693 12.593-38.241 12.593-8.525 0-16.321-1.308-22.022-2.623v20.064c0 5.224-4.234 9.457-9.457 9.457s-9.457-4.234-9.457-9.457v-262.611c-3.858-14.847-13.099-30.886-33.675-41.948l-1.972-1.062c-40.77-21.891-116.639-62.64-115.743-126.696 0.708-49.765 35.373-79.062 68.911-107.398 33.018-27.903 64.215-54.252 64.215-99.025 0-61.39-70.515-108.467-129.665-137.158-4.689-2.276-6.654-7.933-4.371-12.629 1.633-3.367 5-5.332 8.511-5.332 1.38 0 2.789 0.303 4.118 0.946 91.807 44.542 140.322 97.854 140.322 154.187 0 53.544-36.052 84.004-70.92 113.467-31.696 26.775-61.621 52.070-62.199 93.223-0.744 52.561 68.543 89.777 105.773 109.768l1.98 1.062c24.767 13.315 37.158 33.213 42.584 52.684 0.549 1.113 0.881 2.326 0.954 3.627 1.821 7.723 2.608 15.31 2.644 22.303 18.778-18.871 33.805-46.124 18.987-68.904-9.096-13.98-24.008-23.336-39.809-33.256-19.334-12.138-39.318-24.687-50.726-47.020-21.444-42.006-1.199-82.675 60.162-120.88 11.206-6.972 22.744-13.648 33.899-20.092 47.027-27.187 91.438-52.857 116.653-102.037 38.66-75.312-2.023-155.083-29.716-195.932-10.194-15.049-22.123-30.243-37.533-47.807-3.446-3.923-3.056-9.898 0.867-13.337 1.799-1.575 4.024-2.348 6.228-2.348 2.63 0 5.245 1.091 7.109 3.222 15.945 18.171 28.336 33.957 38.978 49.671 30.034 44.31 73.997 131.19 30.886 215.172-27.758 54.122-76.692 82.414-124.015 109.768-11.025 6.372-22.426 12.969-33.372 19.782-52.301 32.563-69.742 64.042-53.32 96.236 9.031 17.694 25.995 28.336 43.942 39.6 16.827 10.563 34.232 21.487 45.604 38.957 17.304 26.595 8.309 56.817-11.184 81.28 25.374-10.7 43.92-25.981 51.896-43.581 7.947-17.52 5.679-37.548-6.726-59.533-3.721-6.589-8.431-13.048-13.417-19.89-15.678-21.487-33.444-45.835-18.98-77.581 11.95-26.226 40.344-39.535 69.243-50.004l4.964-1.799c82.971-30.041 186.244-67.43 208.446-161.058 6.582-27.715 6.416-62.575-0.462-98.143-0.997-5.122 2.355-10.086 7.485-11.076 5.115-0.99 10.086 2.363 11.069 7.485 7.377 38.162 7.485 75.847 0.303 106.112zM465.269 841.923c4.624 1.113 11.365 2.334 18.626 2.334 10.939 0 19.688-2.717 25.995-8.085 17.513-14.891 38.805-15.902 51.188-15.021v-53.363c-9.103-0.824-25.887-0.65-38.942 10.454-9.826 8.359-22.701 12.593-38.249 12.593-6.921 0-13.388-0.867-18.619-1.893v52.98z" />
<glyph unicode="&#xe920;" glyph-name="svg_icons_Philanthropy_black" d="M517.708 524.714c2.305-0.094 4.92-0.159 7.825-0.159h0.007c27.577 0 81.446 5.896 132.396 45.358 61.701 47.793 99.559 128.712 112.535 240.51 0.535 4.638-1.055 9.262-4.349 12.579-3.28 3.309-7.875 4.985-12.528 4.465-2.261-0.238-197.97-23.365-248.493-198.381-22.556 86.352-75.927 134.109-122.491 160.068-65.385 36.442-130.034 38.328-132.75 38.393-4.552 0.072-8.713-1.727-11.697-5.007-2.998-3.28-4.414-7.702-3.909-12.116 31.067-267.813 200.513-288.628 251.708-288.628 0.368 0 0.694 0.007 1.048 0.007v-69.858c0-0.087 0.029-0.166 0.029-0.26h-195.556c-8.482 0-15.353-6.878-15.353-15.353v-164.027c0-8.482 6.871-15.353 15.353-15.353h21.4l41.738-183.325c1.589-6.986 7.803-11.95 14.97-11.95h265.544c6.994 0 13.099 4.725 14.862 11.488l47.814 183.78h15.461c8.482 0 15.353 6.878 15.353 15.353v164.034c0 8.482-6.871 15.353-15.353 15.353h-195.593c0 0.087 0.029 0.166 0.029 0.26v72.769zM267.329 795.279c54.418-6.907 210.505-44.043 217.809-242.778-161.216 0.564-205.888 167.314-217.809 242.778zM697.918 287.658h-391.084v133.314h391.084v-133.314zM737.272 793.639c-32.187-214.666-157.936-238.378-211.74-238.378-0.433 0-0.853 0-1.264 0.007 7.673 179.264 158.045 226.92 213.005 238.371z" />
<glyph unicode="&#xe921;" glyph-name="svg_icons_Philanthropy_no-color" d="M517.708 524.714c2.305-0.094 4.92-0.159 7.825-0.159h0.007c27.577 0 81.446 5.896 132.396 45.358 61.701 47.793 99.559 128.712 112.535 240.51 0.535 4.638-1.055 9.262-4.349 12.579-3.273 3.309-7.861 4.985-12.528 4.465-2.261-0.238-197.97-23.365-248.493-198.381-22.556 86.352-75.927 134.109-122.491 160.068-65.385 36.442-130.034 38.328-132.75 38.393-4.32 0.072-8.713-1.727-11.697-5.007-2.998-3.28-4.414-7.702-3.909-12.116 31.067-267.813 200.513-288.628 251.708-288.628 0.368 0 0.694 0.007 1.048 0.007v-69.858c0-0.087 0.029-0.166 0.029-0.26h-195.556c-8.482 0-15.353-6.878-15.353-15.353v-164.027c0-8.482 6.871-15.353 15.353-15.353h21.4l41.738-183.325c1.589-6.986 7.803-11.95 14.97-11.95h265.544c6.994 0 13.099 4.725 14.862 11.488l47.814 183.78h15.461c8.482 0 15.353 6.878 15.353 15.353v164.034c0 8.482-6.871 15.353-15.353 15.353h-195.593c0 0.087 0.029 0.166 0.029 0.26v72.769zM267.329 795.279c54.418-6.907 210.505-44.043 217.809-242.778-161.216 0.564-205.888 167.314-217.809 242.778zM623.264 92.39h-241.413l-36.753 161.397h320.157l-41.991-161.397zM697.918 287.658h-391.084v133.314h391.084v-133.314zM737.272 793.639c-32.187-214.666-157.936-238.378-211.74-238.378-0.433 0-0.853 0-1.264 0.007 7.673 179.264 158.045 226.92 213.005 238.371z" />
<glyph unicode="&#xe922;" d="M635.134 77.030h-265.544l-43.74 192.11h359.266z" />
<glyph unicode="&#xe923;" d="M635.134 61.677h-265.544c-7.167 0-13.388 4.964-14.97 11.95l-43.747 192.11c-1.040 4.552 0.058 9.335 2.969 12.983s7.333 5.78 12.001 5.78h359.273c4.754 0 9.241-2.204 12.152-5.968 2.904-3.764 3.909-8.655 2.709-13.258l-49.982-192.11c-1.756-6.77-7.868-11.488-14.862-11.488zM381.851 92.39h241.413l41.991 161.397h-320.157l36.753-161.397z" />
<glyph unicode="&#xe924;" d="M517.708 524.714c2.305-0.094 4.92-0.159 7.825-0.159h0.007c27.577 0 81.446 5.896 132.396 45.358 61.701 47.793 99.559 128.712 112.535 240.51 0.535 4.638-1.055 9.262-4.349 12.579-3.28 3.309-7.839 4.985-12.528 4.465-2.261-0.238-197.97-23.365-248.493-198.381-22.556 86.352-75.927 134.109-122.491 160.068-65.385 36.442-130.034 38.328-132.75 38.393-4.465 0.072-8.706-1.727-11.697-5.007-2.998-3.28-4.414-7.702-3.909-12.116 31.067-267.813 200.513-288.628 251.708-288.628 0.368 0 0.694 0.007 1.048 0.007v-69.858c0-0.087 0.029-0.166 0.029-0.26h-195.556c-8.482 0-15.353-6.878-15.353-15.353v-164.027c0-8.482 6.871-15.353 15.353-15.353h421.79c8.482 0 15.353 6.878 15.353 15.353v164.027c0 8.482-6.871 15.353-15.353 15.353h-195.593c0 0.087 0.029 0.166 0.029 0.26v72.769zM267.329 795.279c54.418-6.907 210.505-44.043 217.809-242.778-161.216 0.564-205.888 167.314-217.809 242.778zM697.918 287.658h-391.084v133.314h391.084v-133.314zM737.272 793.639c-32.187-214.666-157.936-238.378-211.74-238.378-0.433 0-0.853 0-1.264 0.007 7.673 179.264 158.045 226.92 213.005 238.371z" />
<glyph unicode="&#xe925;" glyph-name="svg_icons_Play" d="M684.776 447.386l-261.354 154.057c-4.198 2.478-9.407 2.507-13.648 0.094-4.234-2.42-6.849-6.921-6.849-11.805v-310.136c0-4.891 2.63-9.407 6.885-11.82 2.081-1.185 4.393-1.77 6.712-1.77 2.413 0 4.826 0.643 6.972 1.922l261.354 156.080c4.118 2.456 6.632 6.914 6.625 11.712-0.014 4.797-2.558 9.233-6.697 11.668zM512.975 801.926c-202.507 0-367.264-164.757-367.264-367.264s164.757-367.264 367.264-367.264c202.514 0 367.271 164.757 367.271 367.264s-164.757 367.264-367.271 367.264zM512.975 103.517c-182.588 0-331.139 148.551-331.139 331.139s148.551 331.139 331.139 331.139 331.146-148.551 331.146-331.139-148.558-331.139-331.146-331.139z" />
<glyph unicode="&#xe926;" glyph-name="svg_icons_Search" d="M835.762 186.798l-148.79 147.699c31.313 43.292 49.823 96.452 49.823 153.97 0 145.271-117.766 263.044-263.052 263.044-145.278 0-263.044-117.773-263.044-263.044 0-145.278 117.766-263.052 263.044-263.052 58.247 0 112.037 18.965 155.624 51.001l148.761-147.67c7.976-7.918 18.395-11.878 28.813-11.878 10.519 0 21.032 4.031 29.037 12.087 15.909 16.032 15.815 41.933-0.217 57.843zM281.229 488.467c0 106.156 86.359 192.515 192.515 192.515s192.522-86.366 192.522-192.515c0-106.156-86.366-192.522-192.522-192.522s-192.515 86.366-192.515 192.522z" />
<glyph unicode="&#xe927;" glyph-name="svg_icons_Social-managers_black" d="M901.458 211.392c-0.441 0.253-42.251 24.825-67.502 79.257 30.128 51.803 41.724 110.541 33.574 170.378-17.513 131.045-130.59 229.868-263.015 229.868-4.429 0-8.836-0.289-13.243-0.506-48.999 48.197-116.068 75.775-185.254 75.775-13.12 0-26.414-0.983-39.527-2.919-70.407-10.483-132.476-47.735-174.763-104.898-42.258-57.113-59.757-127.296-49.267-197.63 8.988-59.88 36.731-112.983 80.406-154.086-9.291-58.738-42.034-94.422-42.598-95.029-4.689-4.971-5.542-12.449-2.066-18.337 2.803-4.768 7.882-7.564 13.229-7.564 1.279 0 2.565 0.159 3.844 0.491 45.979 11.885 83.542 34.318 111.827 66.744 35.496-14.125 73.275-20.353 111.242-18.517 49.202-48.176 116.198-75.731 185.044-75.731 12.188 0 24.521 0.853 36.601 2.529 46.543 6.25 90.521 24.933 127.874 54.237 34.477-21.805 74.185-32.844 118.199-32.844 2.695 0 5.426 0.043 8.193 0.13 6.856 0.21 12.752 4.949 14.421 11.61 1.683 6.654-1.264 13.619-7.218 17.044zM775.882 247.061c-5.744 4.104-13.547 3.764-18.908-0.838-34.708-29.723-76.57-48.595-121.126-54.577-10.751-1.488-21.675-2.247-32.454-2.247-62.936 0-124.182 26.002-168.109 71.418-35.518 36.197-57.922 81.995-64.771 132.425-17.246 128.509 73.253 247.381 201.763 264.988 4.241 0.592 8.287 0.86 12.571 1.142l1.409 0.094 0.144 0.007c6.011 0.462 12.109 0.694 18.12 0.694 117.101 0 217.094-87.371 232.577-203.265 7.55-55.415-4.017-109.732-33.437-157.062-2.623-4.212-3.042-9.436-1.134-14.016 12.506-29.976 29.55-52.763 44.997-69.041-26.306 4.92-50.293 15.042-71.642 30.28z" />
<glyph unicode="&#xe928;" d="M601.871 158.693c-71.209 0-140.503 29.413-190.102 80.702-40.113 40.879-65.458 92.688-73.21 149.743-19.493 145.271 82.783 279.625 227.996 299.523 5.296 0.737 10.093 1.055 14.739 1.366l1.373 0.094c6.647 0.513 13.532 0.773 20.324 0.773 132.425 0 245.502-98.822 263.015-229.868 8.15-59.837-3.454-118.568-33.574-170.378 25.251-54.432 67.062-79.004 67.502-79.257 5.946-3.432 8.894-10.389 7.225-17.044-1.669-6.661-7.564-11.401-14.421-11.61-2.767-0.087-5.498-0.13-8.193-0.13-44.021 0-83.722 11.040-118.199 32.844-37.353-29.304-81.331-47.988-127.874-54.237-12.087-1.669-24.42-2.521-36.601-2.521zM602.998 660.181c-6.011 0-12.109-0.231-18.12-0.694l-1.546-0.101c-4.292-0.289-8.33-0.556-12.579-1.149-128.509-17.607-219.001-136.478-201.763-264.988 6.849-50.423 29.254-96.221 64.771-132.425 43.927-45.423 105.173-71.425 168.109-71.418 10.78 0 21.704 0.751 32.454 2.247 44.556 5.982 86.417 24.854 121.126 54.577 5.361 4.595 13.164 4.942 18.908 0.838 21.35-15.23 45.336-25.352 71.642-30.265-15.447 16.278-32.483 39.065-44.997 69.041-1.907 4.581-1.488 9.804 1.134 14.016 29.42 47.338 40.987 101.647 33.437 157.062-15.483 115.887-115.476 203.258-232.577 203.258z" />
<glyph unicode="&#xe929;" d="M583.7 674.797c-4.87-0.325-9.775-0.614-15.064-1.351-137.165-18.792-233.27-145.054-214.861-282.241 7.499-55.205 32.678-104.096 69.034-141.138-42.981-3.23-84.705 4.841-121.797 21.48-22.361-28.835-57.272-56.571-111.097-70.486 0 0 39.499 41.608 47.749 111.466-42.678 37.815-72.415 89.748-81.533 150.473-20.418 136.934 73.839 264.619 211.112 285.059 83.072 12.268 162.604-17.311 216.458-73.261z" />
<glyph unicode="&#xe92a;" d="M189.907 185.707c-5.346 0-10.426 2.796-13.229 7.564-3.468 5.888-2.623 13.366 2.066 18.337 0.564 0.607 33.307 36.291 42.598 95.029-43.675 41.102-71.418 94.206-80.406 154.086-10.483 70.334 7.015 140.517 49.267 197.63 42.295 57.163 104.357 94.415 174.763 104.898 13.106 1.936 26.4 2.919 39.527 2.919 71.534 0 140.886-29.42 190.261-80.717 4.14-4.306 5.411-10.613 3.258-16.184s-7.333-9.385-13.294-9.79l-1.402-0.094c-4.284-0.282-8.33-0.556-12.571-1.142-128.509-17.607-219.001-136.478-201.763-264.988 6.849-50.423 29.254-96.221 64.771-132.425 4.19-4.263 5.52-10.57 3.417-16.162s-7.261-9.457-13.222-9.905c-40.366-3.034-80.666 3.172-118.38 18.185-28.278-32.433-65.841-54.859-111.827-66.744-1.264-0.34-2.558-0.499-3.836-0.499zM404.501 735.45c-11.625 0-23.409-0.867-35.019-2.579-62.271-9.277-117.181-42.23-154.584-92.789-37.382-50.524-52.857-112.607-43.581-174.814 8.309-55.408 34.773-104.255 76.526-141.24 3.764-3.331 5.657-8.301 5.065-13.294-3.815-32.317-13.843-58.97-24.073-78.896 23.943 12.080 44.050 28.509 60.039 49.129 4.349 5.599 11.943 7.499 18.416 4.602 26.328-11.798 53.919-18.64 82.227-20.381-27.303 36.052-44.751 78.325-50.957 123.965-18.691 139.289 74.575 268.542 210.281 296.488-40.799 31.934-91.894 49.808-144.339 49.808z" />
<glyph unicode="&#xe92b;" glyph-name="svg_icons_Specific-information" d="M518.387 336.578c0.007 0 0.022 0 0.029 0 5.267 0.007 10.259 2.312 13.691 6.307l122.823 143.263-27.433 23.51-90.976-106.112v343.624h-36.125v-344.028l-92.782 107.507-27.346-23.604 124.449-144.209c3.425-3.966 8.417-6.257 13.67-6.257zM312.549 241.426h411.819v-36.125h-411.819v36.125z" />
<glyph unicode="&#xe92c;" glyph-name="svg_icons_Start-Date" d="M321.617 432.25h77.039v77.039h-77.039v-77.039zM340.524 490.381h39.224v-39.224h-39.224v39.224zM417.245 432.25h77.025v77.039h-77.025v-77.039zM436.153 490.381h39.21v-39.224h-39.21v39.224zM512.867 432.25h77.032v77.039h-77.032v-77.039zM531.782 490.381h39.217v-39.224h-39.217v39.224zM608.489 509.289h77.025v-77.039h-77.025v77.039zM321.617 324.165h77.039v77.032h-77.039v-77.032zM340.524 382.29h39.224v-39.217h-39.224v39.217zM417.245 324.165h77.025v77.032h-77.025v-77.032zM436.153 382.29h39.21v-39.217h-39.21v39.217zM512.867 324.165h77.032v77.032h-77.032v-77.032zM531.782 382.29h39.217v-39.217h-39.217v39.217zM608.489 324.165h77.025v77.032h-77.025v-77.032zM627.396 382.29h39.21v-39.217h-39.21v39.217zM683.534 677.203h-85.933v35.279h-18.908v-35.279h-164.439v35.279h-18.908v-35.279h-72.162c-30.85 0-55.95-25.099-55.95-55.942v-306.61c0-30.85 25.107-55.942 55.95-55.942h360.357c30.85 0 55.95 25.099 55.95 55.942v306.618c0 30.843-25.107 55.935-55.957 55.935zM323.177 658.295h72.162v-37.837h18.908v37.837h164.439v-37.837h18.908v37.837h85.94c20.425 0 37.042-16.61 37.042-37.028v-38.502h-434.441v38.502c0 20.418 16.617 37.028 37.042 37.028zM683.534 277.622h-360.357c-20.425 0-37.042 16.61-37.042 37.035v249.194h434.441v-249.194c0-20.418-16.61-37.035-37.042-37.035z" />
<glyph unicode="&#xe92d;" glyph-name="svg_icons_Download" d="M272.234 187.362h495.664c3.836 0 7.514 1.524 10.223 4.241 2.717 2.717 4.234 6.401 4.227 10.238l-0.26 148.096c-0.014 7.976-6.474 14.428-14.45 14.428-0.007 0-0.014 0-0.029 0-7.976-0.014-14.435-6.495-14.421-14.471l0.231-133.625h-466.714l0.166 133.632c0.007 7.976-6.452 14.457-14.428 14.464-0.007 0-0.014 0-0.022 0-7.976 0-14.443-6.459-14.45-14.435l-0.188-148.096c-0.007-3.836 1.517-7.514 4.227-10.23s6.38-4.241 10.223-4.241zM506.516 309.361c2.745-3.432 6.9-5.419 11.285-5.419 0.123 0 0.246 0 0.368 0 4.516 0.116 8.72 2.341 11.358 6.004l155.668 216.27c3.165 4.4 3.605 10.209 1.134 15.035-2.478 4.826-7.434 7.861-12.86 7.861h-89.61v206.148c0 7.976-6.474 14.45-14.45 14.45h-109.58c-7.976 0-14.45-6.474-14.45-14.45v-206.155h-100.578c-5.556 0-10.621-3.179-13.027-8.193-2.406-5.007-1.727-10.946 1.741-15.288l173-216.263zM459.829 520.206c7.976 0 14.45 6.474 14.45 14.45v206.155h80.688v-206.155c0-7.976 6.474-14.45 14.45-14.45h75.854l-128.076-177.928-142.331 177.928h84.965zM873.823 351.114c-0.007 7.976-6.474 14.435-14.45 14.435-0.007 0-0.014 0-0.022 0-7.976-0.007-14.435-6.488-14.428-14.464l0.296-234.571h-650.118v234.593c0 7.976-6.474 14.45-14.45 14.45s-14.45-6.474-14.45-14.45v-249.042c0-7.976 6.474-14.45 14.45-14.45h679.040c3.836 0 7.514 1.524 10.223 4.241 2.709 2.709 4.234 6.394 4.227 10.23l-0.318 249.028z" />
<glyph unicode="&#xe92e;" glyph-name="svg_icons_Tools" d="M570.572 844.206v-801.213h238.053v801.213h-238.053zM779.726 71.893h-180.254v52.511h56.304c7.976 0 14.45 6.474 14.45 14.45s-6.474 14.45-14.45 14.45h-56.304v72.646h30.106c7.976 0 14.45 6.474 14.45 14.45s-6.474 14.45-14.45 14.45h-30.106v72.618h56.304c7.976 0 14.45 6.474 14.45 14.45s-6.474 14.45-14.45 14.45h-56.304v72.625h38.632c7.976 0 14.45 6.474 14.45 14.45s-6.474 14.45-14.45 14.45h-38.632v72.625h56.304c7.976 0 14.45 6.474 14.45 14.45s-6.474 14.45-14.45 14.45h-56.304v72.625h38.632c7.976 0 14.45 6.474 14.45 14.45s-6.474 14.45-14.45 14.45h-38.632v72.632h56.304c7.976 0 14.45 6.474 14.45 14.45s-6.474 14.45-14.45 14.45h-56.304v52.836h180.254v-743.414zM471.237 665.484h-1.25c-0.491 2.24-1.452 4.407-3.042 6.278l-117.65 138.429-117.73-138.429c-1.597-1.871-2.558-4.039-3.049-6.286h-1.286v-413.004h243.999v413.012zM363.181 749.213h-27.816l13.915 16.357 13.901-16.357zM311.010 720.574c0.838-0.152 1.698-0.26 2.579-0.26h71.238c0.918 0 1.813 0.108 2.68 0.275l46.825-55.104h-170.175l46.853 55.090zM370.5 636.584v-355.205h-42.497v355.205h42.497zM256.13 636.584h42.974v-355.205h-42.974v355.205zM442.337 281.379h-42.93v355.205h42.93v-355.205zM459.988 229.23h-221.552c-7.976 0-14.45-6.474-14.45-14.45s6.474-14.45 14.45-14.45h221.552c7.976 0 14.45 6.474 14.45 14.45s-6.474 14.45-14.45 14.45zM225.525 163.845c0.491-67.459 55.747-122.347 123.163-122.347 67.437 0 122.715 54.88 123.221 122.347l0.108 14.558h-246.6l0.108-14.558zM441.774 149.503c-7.355-44.751-46.413-79.098-93.086-79.098-46.651 0-85.695 34.34-93.028 79.098h186.114z" />
<glyph unicode="&#xe92f;" glyph-name="svg_icons_facebook" d="M541.6 255.131h-70.457v188.014h-47.005v64.786l47.005 0.022-0.087 38.176c0 52.857 14.32 85.015 76.598 85.015h51.846v-64.8h-32.396c-24.254 0-25.417-9.053-25.417-25.959l-0.087-32.433h58.262l-6.871-64.793-51.347-0.014-0.043-188.014z" />
<glyph unicode="&#xe930;" glyph-name="svg_icons_instagram" d="M447.258 449.402c0 35.77 28.979 64.771 64.75 64.771s64.8-29.008 64.8-64.771c0-35.77-29.030-64.778-64.8-64.778s-64.75 29.001-64.75 64.778zM412.224 449.402c0-55.104 44.693-99.783 99.79-99.783 55.119 0 99.79 44.679 99.79 99.783s-44.679 99.783-99.79 99.783c-55.104-0.007-99.79-44.679-99.79-99.783zM592.428 553.13c0-12.868 10.426-23.322 23.322-23.322 12.875 0 23.329 10.454 23.329 23.322 0 12.875-10.44 23.315-23.329 23.315s-23.322-10.44-23.322-23.315zM433.494 291.227c-18.944 0.86-29.239 4.017-36.081 6.683-9.074 3.533-15.541 7.738-22.354 14.537-6.799 6.799-11.018 13.265-14.537 22.332-2.666 6.842-5.816 17.145-6.69 36.088-0.946 20.483-1.142 26.638-1.142 78.527s0.224 58.023 1.142 78.527c0.874 18.944 4.039 29.218 6.69 36.088 3.54 9.067 7.731 15.534 14.537 22.347 6.806 6.799 13.265 11.018 22.354 14.537 6.842 2.673 17.137 5.83 36.081 6.69 20.49 0.939 26.631 1.134 78.513 1.134 51.904 0 58.023-0.21 78.527-1.134 18.951-0.86 29.239-4.031 36.096-6.69 9.067-3.511 15.534-7.731 22.339-14.537 6.791-6.791 11.011-13.279 14.551-22.347 2.659-6.842 5.816-17.145 6.69-36.088 0.939-20.504 1.127-26.638 1.127-78.527 0-51.882-0.188-58.030-1.127-78.527-0.874-18.944-4.031-29.246-6.69-36.088-3.533-9.067-7.752-15.534-14.551-22.332-6.777-6.791-13.272-10.996-22.339-14.537-6.842-2.666-17.145-5.823-36.096-6.683-20.475-0.946-26.631-1.127-78.527-1.127-51.882 0-58.023 0.181-78.513 1.127zM431.89 642.538c-20.678-0.946-34.802-4.219-47.164-9.024-12.788-4.964-23.618-11.618-34.427-22.419s-17.448-21.631-22.404-34.419c-4.812-12.347-8.085-26.479-9.046-47.164-0.946-20.721-1.17-27.346-1.17-80.11 0-52.778 0.224-59.403 1.17-80.11 0.961-20.692 4.234-34.817 9.046-47.171 4.956-12.781 11.589-23.625 22.404-34.419 10.794-10.801 21.624-17.441 34.427-22.412 12.362-4.805 26.486-8.085 47.164-9.031 20.743-0.939 27.339-1.178 80.117-1.178 52.792 0 59.41 0.224 80.11 1.178 20.685 0.939 34.817 4.219 47.171 9.031 12.788 4.971 23.625 11.61 34.448 22.412 10.78 10.801 17.405 21.646 22.404 34.419 4.79 12.355 8.085 26.486 9.024 47.171 0.939 20.728 1.156 27.339 1.156 80.11s-0.217 59.396-1.156 80.11c-0.939 20.685-4.234 34.817-9.024 47.164-4.992 12.781-11.618 23.611-22.404 34.419-10.823 10.801-21.66 17.463-34.434 22.419-12.369 4.805-26.501 8.099-47.171 9.031-20.699 0.939-27.332 1.178-80.095 1.178-52.807-0.007-59.403-0.231-80.146-1.185z" />
<glyph unicode="&#xe931;" glyph-name="svg_icons_linkedin" d="M672.631 637.863h-321.241c-15.382 0-27.845-12.087-27.845-27.007v-322.917c0-14.912 12.485-27.014 27.845-27.014h321.241c15.382 0 27.838 12.109 27.838 27.014v322.917c-0.007 14.912-12.456 27.007-27.838 27.007zM437.815 322.344h-56.954v170.175h56.954v-170.175zM409.349 515.77h-0.397c-19.103 0-31.464 13.070-31.464 29.42 0 16.682 12.738 29.384 32.216 29.384 19.471 0 31.457-12.701 31.833-29.384 0-16.357-12.362-29.42-32.187-29.42zM643.103 322.344h-56.939v91.048c0 22.881-8.244 38.494-28.827 38.494-15.75 0-25.099-10.534-29.196-20.699-1.539-3.634-1.907-8.713-1.907-13.785v-95.051h-56.939c0 0 0.759 154.216 0 170.175h56.939v-24.124c7.557 11.589 21.068 28.134 51.311 28.134 37.468 0 65.559-24.312 65.559-76.606v-97.587zM525.879 467.861c0.087 0.159 0.217 0.347 0.354 0.535v-0.535h-0.354z" />
<glyph unicode="&#xe932;" glyph-name="svg_icons_twitter" d="M716.371 549.271c-14.24-6.322-29.535-10.592-45.596-12.506 16.386 9.826 28.972 25.396 34.911 43.942-15.338-9.103-32.346-15.707-50.43-19.269-14.493 15.44-35.135 25.078-57.965 25.078-43.855 0-79.431-35.554-79.431-79.416 0-6.221 0.694-12.29 2.059-18.098-66.014 3.316-124.528 34.932-163.702 82.985-6.828-11.733-10.751-25.374-10.751-39.925 0-27.556 14.024-51.868 35.337-66.108-13.027 0.419-25.273 3.988-35.973 9.934-0.014-0.332-0.014-0.665-0.014-0.997 0-38.48 27.39-70.58 63.695-77.877-6.647-1.813-13.677-2.789-20.916-2.789-5.122 0-10.086 0.491-14.941 1.423 10.1-31.551 39.441-54.512 74.2-55.148-27.18-21.306-61.441-34.008-98.634-34.008-6.408 0-12.73 0.376-18.951 1.12 35.149-22.542 76.895-35.684 121.754-35.684 146.080 0 225.959 121.017 225.959 225.973 0 3.446-0.072 6.864-0.224 10.274 15.512 11.177 28.979 25.164 39.614 41.095z" />
<glyph unicode="&#xe933;" glyph-name="svg_icons_youtube" d="M405.498 321.21h-34.022v19.702c-12.896-14.789-23.835-22.253-35.756-22.253-10.447 0-17.715 4.935-21.335 13.843-2.225 5.419-3.779 13.886-3.779 26.313v143.248h34.008v-134.289c0-7.601 0-10.751 0-12.535 0.802-5.021 2.941-6.864 7.254-6.864 6.524 0 12.42 5.657 19.616 15.815v137.873h34.022v-180.854zM285.535 442.971c0 19.327-3.894 33.841-10.751 42.981-9.074 12.369-23.286 17.434-37.598 17.434-16.22 0-28.553-5.065-37.613-17.434-6.972-9.14-10.707-23.806-10.707-43.133l-0.029-64.302c0-19.218 3.323-32.498 10.295-41.543 9.053-12.333 23.741-18.864 38.061-18.864s29.254 6.531 38.321 18.864c6.856 9.046 10.035 22.325 10.035 41.543v64.453zM251.506 374.935c1.785-17.911-3.757-26.79-14.327-26.79-10.563 0-16.104 8.879-14.298 26.79v71.628c-1.806 17.911 3.742 26.299 14.313 26.299 10.563 0 16.126-8.388 14.327-26.299l-0.014-71.628zM151.246 419.7v-98.483h-35.814v98.483c0 0-37.122 120.743-44.773 143.248h37.606l25.121-94.321 25.020 94.321h37.598l-44.758-143.248zM755.414 473.302c-5.332 0-11.444-2.818-16.877-8.164l-0.029-108.59c5.419-5.419 11.574-8.164 16.906-8.164 9.356 0 13.576 6.864 13.576 24.767v76.989c0 17.903-4.219 23.163-13.576 23.163zM888.945 451.779c0 16.552-4.277 21.523-15.028 21.523-10.823 0-15.411-4.559-15.411-21.299v-19.803l30.439 0.036v19.543zM962.437 543.412c0 0-5.209 36.681-21.256 52.836-20.338 21.191-43.111 21.299-53.565 22.542-74.821 5.39-187.053 5.39-187.053 5.39h-0.246c0 0-112.232 0-187.038-5.39-10.469-1.235-33.263-1.351-53.594-22.542-16.018-16.155-21.234-52.836-21.234-52.836s-5.361-43.068-5.361-86.143v-40.38c0-43.075 5.361-86.15 5.361-86.15s5.224-36.674 21.234-52.828c20.331-21.205 47.077-20.526 58.97-22.751 42.764-4.082 181.779-5.346 181.779-5.346s112.354 0.159 187.176 5.549c10.454 1.243 33.227 1.351 53.565 22.549 16.054 16.155 21.256 52.828 21.256 52.828s5.332 43.075 5.332 86.15v40.38c0.007 43.075-5.325 86.143-5.325 86.143zM550.53 321.21h-35.799v205.924h-37.606v33.979l112.795 0.043v-34.022h-39.39v-205.924zM679.452 321.21h-34.022v19.702c-12.882-14.789-23.821-22.253-35.742-22.253-10.454 0-17.723 4.935-21.35 13.843-2.218 5.419-3.786 13.886-3.786 26.313v141.464h34.029v-132.505c0-7.601 0-10.751 0-12.535 0.788-5.021 2.926-6.864 7.254-6.864 6.502 0 12.405 5.657 19.601 15.815v136.088h34.022v-179.069zM803.005 374.935c0-16.545-1.416-28.22-3.576-35.814-4.335-13.301-13.756-20.215-26.667-20.215-11.531 0-23.329 6.936-34.167 20.338l-0.058-18.033h-32.23v239.939h32.23l-0.029-78.231c10.469 12.882 22.311 20.223 34.246 20.223 12.911 0 21.588-7.463 25.909-20.858 2.16-7.203 4.342-18.785 4.342-35.734v-71.613zM874.235 348.376c7.976 0 12.629 4.342 14.486 13.005 0.296 1.763 0.224 9.501 0.224 22.506h34.037v-5.072c0-10.447-0.874-17.838-1.156-21.082-1.091-7.182-3.641-13.691-7.586-19.421-8.966-12.998-22.274-19.399-39.224-19.399-16.942 0-29.846 6.105-39.231 18.33-6.885 8.952-11.285 22.267-11.285 41.276v62.662c0 19.124 4.010 33.906 10.895 42.959 9.385 12.239 22.289 18.727 38.841 18.727 16.263 0 29.167-6.481 38.249-18.727 6.777-9.046 10.548-23.040 10.548-42.165l0.014-36.601h-64.54v-32.158c-0.101-16.516 4.588-24.839 15.729-24.839z" />
<glyph unicode="&#xe934;" glyph-name="svg_icons_knowled" d="M8.973,11.146v9.558c0,0.425-0.268,0.803-0.668,0.943c-0.566,0.199-1.249,0.304-1.976,0.304l0,0   c-2.091,0-4.34-0.858-4.34-2.742V6.979c-0.047-0.84,0.246-2.324,1.653-3.127C4.295,3.479,7.724,1.274,9.446,0.16   c0.307-0.199,0.699-0.213,1.021-0.039C10.789,0.297,10.989,0.634,10.989,1v1.448c0,0.552-0.448,1-1,1   c-0.43,0-0.797-0.271-0.938-0.653c-1.556,1-3.848,2.468-4.417,2.793C4.122,5.881,4.011,6.419,3.989,6.711   c0,0.328,0.071,0.586,0.199,0.727c0.355,0.387,1.538,0.146,2.829-0.629c1.24-0.744,7.356-4.816,7.417-4.857   c0.309-0.205,0.703-0.224,1.026-0.049c0.326,0.174,0.529,0.513,0.529,0.882v0.114c0,0.334-0.167,0.646-0.444,0.832   c0,0-4.246,2.834-4.622,3.075C9.484,7.732,8.973,8.868,8.973,11.146z M23.989,6.32v12.982c0,0.343-0.177,0.663-0.468,0.846   c0,0-5.83,4.528-7.013,5.247c-0.622,0.379-1.414,0.579-2.289,0.579c-2.079,0-4.23-1.125-4.23-3.006V10.852v-0.293   c0-0.004,0.003-0.008,0.003-0.013c0.02-0.732,0.191-1.777,1.552-2.781c0.816-0.602,5.676-3.916,5.882-4.056   c0.307-0.208,0.704-0.23,1.03-0.058c0.328,0.173,0.533,0.513,0.533,0.884v1.448c0,0.552-0.447,1-1,1   c-0.413,0-0.768-0.25-0.92-0.608c-1.551,1.061-3.828,2.624-4.338,2.999c-0.644,0.476-0.73,0.79-0.741,1.193   c0.002,0.299,0.083,0.527,0.247,0.677c0.51,0.467,1.883,0.271,3.237-0.541c1.002-0.602,5.32-3.936,6.898-5.17   c0.303-0.234,0.711-0.277,1.055-0.11S23.989,5.937,23.989,6.32z M21.989,10.776l-5,3.879v2l5-3.879V10.776z"/>
</font>
</defs>
</svg>
